<?xml version="1.0" encoding="UTF-8"?>
<svg id="Capa_2" data-name="Capa 2" xmlns="http://www.w3.org/2000/svg" viewBox="0 0 424.1 239.56">
  <defs>
    <style>
      .cls-1 {
        fill: #fff;
        stroke-width: 0px;
      }
    </style>
  </defs>
  <g id="Layer_1" data-name="Layer 1">
    <g>
      <g>
        <path class="cls-1" d="m64.85,9.68C88.74-2.24,119.5.3,140.34,17.3c4.76,4.33,10.61,7.27,15.09,11.93,3.97,3.72,7.09,8.21,9.62,13.01,0,0,0,.01.02.01,7.26.26,14.62-.62,21.82.48,0,0,.01,0,.01,0,1.6,2.11.78,5.44-2.09,5.77-5.79.76-11.66.26-17.48.44-.01,0-.02.01-.02.03,2.42,8.87,2.44,18.17,1.34,27.24,0,.01,0,.02.02.02,5.42.08,10.86-.18,16.28.05,3.54-.38,4.35,5.88.95,6.48-6.08.49-12.19-.02-18.28.22-.01,0-.02.01-.02.02.53,4.59,1.85,9.13,1.47,13.79-.78,9.61-5.57,18.93-13.25,24.83-2.77,2.13-6.11,3.22-9.5,3.89-.77.15-1.44.62-1.85,1.28-.88,1.4-1.72,2.82-2.52,4.27-.36.65-1.04,1.05-1.78,1.06h-.04c-1.41,0-2.4-1.38-1.95-2.72,1.35-3.97,3.18-8.28,7.74-8.7,6.06-.61,10.58-5.28,13.64-10.2,3.47-5.87,5.87-12.95,4.12-19.78-.92-4.04-4.07-7.66-8.29-8.28-5.64-1.04-11.06,2.3-14.55,6.51-.92,1.64-2.58.3-3.55-.55-2.78-3.19-3.03-7.65-3.59-11.64-.85-7.34-2.21-15.02-6.72-21.09-3.34-4.96-8.05-8.75-12.93-12.1-.02-.01-.04,0-.03.02,1.06,2.95,2.37,5.84,3.18,8.87.26.97-.41,1.96-1.41,2.06-1.94.19-3.9.15-5.8-.29-8.91-1.84-17.4-5.35-25.32-9.77-.02-.01-.04.01-.03.03,1.77,2.72,3.93,5.26,5.19,8.29.45,1.07-.43,2.25-1.59,2.14-11.28-1.02-21.09-8.14-28.36-16.48,0,0-.02,0-.03,0-6.85,5.36-12.82,12.17-15.8,20.47-2.84,7.24-3.64,15.09-3.59,22.83.29,9.69-1.89,19.36-.6,29.04,1.44,13.95,9.8,26.87,21.74,34.16,13.58,8.24,30.75,9.99,45.82,5.09,1.02-.33,2.13.13,2.58,1.11l.02.04c.48,1.06,0,2.31-1.05,2.78-7.13,3.15-15.19,3.4-22.88,3.26-.01,0-.02.01-.02.02.78,3.96,2.84,8.17,7.17,9.12,13.3,3.35,26.53-4.23,35.02-14.2.96-1.12,2.46-1.6,3.89-1.26,5.19,1.24,10.31,2.78,15.2,4.95h.02c1.14-1.46,2.88-2.31,4.72-2.34,5.96-.08,11.94-.25,17.9.02,3.48-.32,4.29,5.68.84,6.14-5.36.79-10.81.26-16.21.36-.02,0-.03.02-.01.04,3.57,3.16,6.94,6.54,10.04,10.18,0,0,0,0,.01,0,7.04.21,14.12-.36,21.14.32,1.26.06,2.11.74,2.56,1.66,1.04,2.12-.59,4.6-2.95,4.72-5.61.3-11.25-.09-16.86.11-.01,0-.02.01-.02.03,1.23,3.41,2.75,6.72,3.71,10.23.62,1.94-1.57,3.51-3.3,3.62-7.04.36-14.1-.18-21.14.15-3.13-.31-3.84,5.16-.86,5.81,7.28.49,14.61-.22,21.9.18,2.72.12,5.05,2.99,4.32,5.69v.02c-.52,2.1-2.39,3.59-4.55,3.61-2.43.03-4.86.01-7.29.03-1.76,0-3.37,1.06-3.98,2.71-.48,1.3-.64,2.61.52,3.74,3.87,3.26,9.89-.01,13.79,3.11,3.26,2.71-.08,7.71-3.71,7.7-8.68.56-17.41-.08-26.1.29-2.33-.38-3.19,3.19-1.81,4.63.73,1.29,2.52.73,3.73.97,4.24.05,8.5-.09,12.75-.03.96.01,1.77.71,1.95,1.65h0c.21,1.1-.52,2.18-1.63,2.37-13.19,2.32-26.62,2.74-39.97,3.29-18.02.21-36.14-.68-53.84-4.19-2.17-.46-4.36-.89-6.34-1.89,0,0-.01,0-.01-.02-.6-4.34.11-8.72.36-13.06.73-7.28,1.03-14.6,1.3-21.91,0-.01-.01-.02-.03-.02-8.97,3.47-19.84,5.28-28.43-.11-8.65-5.03-12.13-15.09-14.7-24.18-1.04-3.1-1.06-6.94-3.86-9.09-3.38-2.95-6.85-5.99-8.94-10.03-4.33-8.22-2.68-19.39,4.46-25.54,4.55-3.74,7.67-9.87,13.97-10.9,5.18-.7,9.06,3.53,11.68,7.42h0c2.96,3.36,6.85,6.1,8.31,10.55,2.49,6.2,1.21,13.19-1.85,18.94,0,0,0,.02,0,.02,3.07,4.17,6.61,7.98,9.66,12.18,0,0,.02.01.03,0,6.07-4.7,12.65-8.87,19.88-11.59.02,0,.02-.03,0-.04-11.49-4.53-21.58-12.88-27.3-23.91-4.01-7.24-5.69-15.54-6.17-23.73h0c.03-9.97,2.1-19.98.46-29.91-1.77-12.18.45-24.84,6.31-35.65,0,0,0-.02,0-.03-3.63-2.36-8-4.14-10.26-8.05-1.02-1.9-1.82-4.25-1.02-6.37.81-1.58,2.81-1.54,4.29-1.94,11.27-1.57,19.95-9.58,30.03-14.14ZM20.06,121c-4.05,2.05-6.19,6.38-9.7,9.14-5.33,4.11-7.21,11.7-4.8,17.92,2.48,6.35,8.38,10.26,13.04,14.9,0,0,.01,0,.02,0,4.25-.41,8.58-1.61,11.78-4.58,3.55-2.72,4.06-7.46,5.87-11.27,2.63-5.65,1.33-13.64-4.4-16.84,0,0,0,0-.01,0-3.09.29-5.52,2.36-6.3,5.13-.42,1.52.8,3.01,2.38,2.86,2.26-.21,4.64-.42,5.6,1.92h0c-.27,3.78-4.86,3.78-7.84,4.89-.63.23-1.1.76-1.32,1.4-.63,1.89-.9,3.91-1.81,5.7l-.25.4c-2.11,2.76-6.98,3.21-9.22.42l-.34-.6c-.18-.51-.26-1.04-.31-1.58-.1-1.27.85-2.38,2.12-2.46.03,0,.06,0,.08,0,2.17-.14,2.93-2.93,1.12-4.13-.94-.62-1.88-1.24-2.8-1.89-1.06-.75-1.24-2.27-.4-3.26.88-1.04,1.89-1.9,3.4-1.52.36.14.7.3,1.04.48,1.93,1.02,4.06-.99,3.1-2.95s-2.17-3.61-3.43-5.32c-.75-1.02-.53-2.46.51-3.18.53-.36,1.08-.66,1.72-.79,1.49-.24,2.55.65,3.53,1.63.77.77,1.98.84,2.87.22.37-.26.75-.53,1.12-.79,1.16-.8,1.35-2.31.41-3.36-1.78-2-4.01-3.71-6.8-2.5Zm111.78,92.6c5.53-.05,11.11.38,16.61-.15,1.97-.19,3.43-2.06,3-4-.05-.23-.12-.46-.21-.69-.58-1.49-2.08-2.4-3.68-2.37-5.88.14-11.79-.36-17.64.22,0,0,0,0,0,0-4.49,1.16-2.91,6.98,1.92,6.98Z"/>
        <path class="cls-1" d="m177.29,60.31c8.14-.94,16.41-.68,24.6-1,1.91-.03,4.98-.21,5.18,2.41.67,2.55-1.78,4.56-4.19,4.3-8.34.11-16.69.06-25.03.14-3.22.15-3.47-5.18-.56-5.85Z"/>
        <path class="cls-1" d="m107.2,69.19c3.05-2.27,6.52,3.07,3.18,4.96-6.16,3.64-12.17,7.62-18.52,10.93-3.08,1.59-5.81-3.34-2.72-5.03,5.88-3.83,11.95-7.41,18.06-10.86Z"/>
        <path class="cls-1" d="m50.07,69.82c1.84-1.42,3.94.24,5.53,1.23,3.73,2.59,7.54,5.09,11.18,7.83.66.38,1.09.97,1.29,1.64.76,2.5-2.08,4.66-4.39,3.44-.87-.46-1.69-1.09-2.47-1.55-3.7-2.69-7.58-5.14-11.21-7.94-1.55-.93-1.44-3.8.07-4.65Z"/>
        <path class="cls-1" d="m52.12,87.13c1.46-.68,3,.55,4.43.91,2.38,1.1,5.12,1.8,7.25,3.37,1.22.9,1.74,2.57,1.07,3.92-.51,1.04-1.54,1.68-3.01,1.29-3.66-1.01-7.23-2.52-10.5-4.43-2.15-1.13-1.3-4.35.76-5.07Z"/>
        <path class="cls-1" d="m102.35,86.97c.36-.2.73-.33,1.09-.4,3.37-.69,4.87,4.16,1.81,5.73-2.83,1.45-6,2.22-9.02,3.14-.81.35-1.65.24-2.37-.13-2.18-1.14-1.96-4.36.27-5.39,2.47-1.14,5.14-1.85,7.72-2.72.17-.06.34-.14.5-.23Z"/>
        <path class="cls-1" d="m141.98,101.9c.68-6.9,6.91-12.67,13.82-12.99.77-.04,1.47.44,1.73,1.16,0,.02.02.05.03.07.36.98-.2,2.05-1.21,2.31-2.17.56-4.36,1.17-6.13,2.6-2.48,1.97-3.6,4.98-4.88,7.79-.83,1.83-3.55,1.05-3.35-.94Z"/>
        <path class="cls-1" d="m68.25,108.56c-2.1-4.14,1.65-8.52,5.7-9.23,1.22-.43,2.31.33,2.96,1.35.51.8.54,1.85-.04,2.59-.5.64-1.26,1.06-2.05,1.44-1.08.52-1.55,1.8-1.1,2.9v.03c.28.65.24,1.38-.1,1.98h0c-.59,1.06-1.86,1.57-3.01,1.18s-2.07-.94-2.37-2.24Z"/>
        <path class="cls-1" d="m77.4,114.67c5.92-1.31,12.55-.68,17.56,2.97,4.56,3,8.49,8.35,7.42,14.08-.64,3.33-4.32,5.27-7.51,4.72-4.7-.73-9.19-2.85-14.03-2.58-4.71-.04-9.21,2.47-13.94,1.59-3.78-.84-4.88-5.43-4.03-8.74,1.5-6.7,8.22-10.72,14.53-12.04Z"/>
        <path class="cls-1" d="m128.93,143.26c-3.58.18-3.41-5.93.05-5.89,7.96-.54,15.95-.25,23.92-.3,1.64.07,3.47-.08,5.06.4,1.36.41,2.19,1.78,2.01,3.19,0,.01,0,.03,0,.04-.19,1.41-1.39,2.47-2.81,2.5-9.4.23-18.82.15-28.23.05Z"/>
      </g>
      <g>
        <path class="cls-1" d="m305.54,20.39C318.49,7.47,336.65.21,354.89.04c18.2-.62,37.13,5.48,49.99,18.71,9.67,9.74,15.15,23.3,15.24,37,.28,7.06-1.8,13.93-2.02,20.96-.24,7.33-.56,14.67-.23,22.01.28,8.69,1.01,17.65-1.86,26.03-4.12,14.16-15.25,25.38-28.51,31.4-.69.31-.67,1.3.02,1.6,5.27,2.25,10.4,4.91,14.91,8.49,8.33,6.46,14.18,15.79,17.19,25.83,3.4,10.91,3.52,22.43,4.38,33.72.4,1.7-.39,3.53-2.2,3.93-15.43,5.06-31.65,7.05-47.75,8.67-29.75,2.48-59.77.92-89.22-3.84-.59-.11-1.18-.26-1.75-.44-1.91-.59-2.35-3.24-.59-4.19.37-.2.8-.29,1.32-.23,6.55-.48,13.15.34,19.68-.35,1.97-1.03,1.71-4,.02-5.16-7.1-1.05-14.58.79-21.49-1.56-3.62-1.49-3.72-7.14-.05-8.63,3.67-1.03,7.58-.15,11.35-.59,1.13-.13,2.11-.96,2.33-2.08.24-1.18.02-2.42-.42-3.58-.29-.77-1.02-1.29-1.84-1.29-2.79-.02-5.57-.01-8.36-.04-1.78-.02-3.15-1.58-2.92-3.35s.46-3.44.71-5.15c-2.68-.33-6.25.44-9-.34-2.15-.61-3.36-2.91-2.79-5.07h0c.3-1.14,1.33-1.95,2.51-1.96,3.6-.04,7.2,0,10.8.02,1.62-4.68,3.64-9.19,6.1-13.48-10.89-.07-21.79.14-32.67-.26-.62.08-1.21-.03-1.72-.27-2.72-1.25-1.88-5.35,1.08-5.75.59-.08,1.19-.12,1.79-.15,12.41-.41,24.84-.18,37.26-.47,4.29-4.12,9.03-7.83,14.51-10.23-2.61.08-5.24.28-7.85.18-2.38-.08-4.15-2.43-3.29-4.65.35-.91,1.07-1.61,2.25-1.78,7-.43,14.04-.09,21.04-.56.7-1.5,1.41-3.01,2.12-4.5-1.92-1.7-3.85-3.39-5.78-5.07-7.77-.04-15.55-.12-23.31.29-2.67.04-5.37.23-7.99-.31-1.98-.41-2.96-3.02-1.79-4.65,1.03-2.09,3.73-1.92,5.7-2.01,7.1,0,14.21-.03,21.31.03-2.21-3.12-4.42-6.26-6.41-9.53-10.93-2.35-18.63-12.16-21.07-22.67-1.91-7.16-1.57-15.65,3.76-21.3-1.34-5.74-2.17-11.58-2.69-17.44-8.28,0-16.58.18-24.86-.06-1.93,0-2.43-.18-3.12-1.52-.56-1.07-.45-2.76.25-3.74l.02-.03c.56-.78,1.46-1.26,2.42-1.27,8.47-.12,16.94-.03,25.42-.11,1.29-14.71,8.14-28.6,18.72-38.85Zm28.49,16.94c-2.16,7.44-6.71,13.95-12.64,18.88-2.61,1.65-2.15,4.94-2.48,7.6-.52,8.34-.82,16.75-2.51,24.95-.35,2.01-1.95,3.39-3.29,4.78-2.54-2.47-4.54-5.64-7.8-7.24-3.18-1.74-7.21-2.5-10.42-.44-4.44,2.05-5.78,7.38-5.49,11.86.51,7.08,3.52,13.98,8.22,19.27,2.9,3.33,7.19,4.75,11.3,5.93,1.43.38,1.86,2.06,2.69,3.14,6.37,11.58,16.84,20.69,28.86,26.08,15.66,6.82,34.49,6.16,49.46-2.19,10.92-5.87,19.45-16.22,22.58-28.28,1.72-6.14,1.63-12.59,1.15-18.9-1.06-14.59.77-29.25-.53-43.82-.56-6.52-3.22-13.08-8.94-16.7-9.29,4.98-19.92,6.83-30.39,6.73-14,.31-28.54-2.94-39.77-11.65Zm-5.64,115.16c-.41.96-.82,1.93-1.23,2.9-.26.61-.11,1.31.37,1.76,5.16,4.91,10.44,9.88,17.03,12.8,7.47,3.44,16.38,6.16,24.38,2.98,4.31-1.94,5.91-6.49,6.27-10.9.08-1.03-.81-1.85-1.82-1.68-14.84,2.43-30.48-.43-43.27-8.39-.62-.38-1.43-.15-1.72.52Zm-36.57,40.62c-.07.32-.12.64-.18.96-.24,1.48.91,2.81,2.41,2.84,4.24.08,8.5.27,12.73-.11,2.85-.21,2.98-5.61.04-5.65-4.23-.21-8.48-.32-12.7-.03-1.12.08-2.07.89-2.3,1.98Z"/>
        <path class="cls-1" d="m346.96,70.91c4.36-1.9,9.23-2.96,13.99-2.3,1.1.09,2.01.59,2.83,1.24,1.64,1.31.82,3.98-1.26,4.2-1.78.19-3.86-.37-5.67-.24-4.07-.1-7.72,1.73-11.23,3.59-.95.5-2.11.29-2.85-.48,0,0-.02-.02-.02-.02-.77-.81-.87-2.08-.21-2.99,1.04-1.42,2.87-2.23,4.42-3Z"/>
        <path class="cls-1" d="m389.79,75c-2.74-2.38.56-5.58,3.2-6.01,5.22-1.04,11.09.07,15.21,3.56,1.14.76.96,1.8.47,2.83-.58,1.23-2.1,1.71-3.31,1.09-2.37-1.19-4.71-2.53-7.41-2.55-2.78-.25-5.45.69-8.16,1.07Z"/>
        <path class="cls-1" d="m296.43,93.68s0-.02,0-.03c.23-.79.96-1.34,1.78-1.33,6.57.09,12.09,5.18,13.64,11.43.38,1.54-1.42,2.74-2.69,1.79-2-1.5-2.74-4.69-4.76-6.43-1.78-1.82-4.25-2.51-6.67-3.12-1.01-.26-1.6-1.3-1.31-2.3Z"/>
        <path class="cls-1" d="m342.58,94.59s.02-.05.03-.07c.58-1.26,2.12-1.74,3.34-1.08,3.28,1.8,6.7,3.73,10.52,2.97.19-.04.38-.1.55-.18,1.38-.61,2.63-1.5,3.94-2.24,1.75-.97,3.91.45,3.59,2.43-.08.52-.29,1-.71,1.42-3.35,4.14-9.52,4.47-14.29,3.08-.07-.02-.13-.04-.19-.06-2.35-.84-5.03-1.83-6.53-3.88-.51-.69-.61-1.61-.25-2.39Z"/>
        <path class="cls-1" d="m386.99,92.99l.75-.66c1.46-.91,6.06,3.96,9.65,4.19.28.02.57-.03.84-.13,1.84-.68,3.45-1.85,5.19-2.75,1.38-.71,3.09.24,3.08,1.79-.01,1.83-1.71,3.8-3.43,4.58-5.09,3.26-11.68,1.14-15.84-2.65-1.29-1.01-1.55-3.31-.24-4.37Z"/>
        <path class="cls-1" d="m379.61,114.82c2.37-.87,4.46-2.24,6.41-3.82,1.04-.84,2.63-.57,3.25.61.4.77.55,1.58-.06,2.43-1.62,3.36-5.15,4.78-8.65,4.58-1.5-.09-2.6-1.58-1.99-2.95.18-.41.49-.73,1.04-.86Z"/>
        <path class="cls-1" d="m360.51,125.35c.07-.07.15-.15.24-.23.68-.66,1.68-.9,2.57-.57,3.56,1.31,6.74,3.72,10.68,3.8,3.8.55,7.24-1.14,10.66-2.53,1.58-.64,3.44.45,3.41,2.16-.01.71-.33,1.42-1.02,1.93-7.47,5.41-18.22,4.5-25.54-.74-1.33-.8-1.84-2.49-.99-3.81Z"/>
        <path class="cls-1" d="m271.8,159.95c-3.53-.24-3.92-6.25.02-6.23,6.04-.43,12.18-.62,18.24-.21,1.85.13,3.28,1.78,3.04,3.61,0,.02,0,.05,0,.07-.22,1.59-1.63,2.77-3.24,2.77-6.02.02-12.04.26-18.06-.02Z"/>
        <path class="cls-1" d="m249.57,209.78c0-2.08,1.26-2.37,2.39-2.73,4.92-.82,9.94-.26,14.91-.45,2.17.08,5.04-.38,6.38,1.8,0,0,0,0,0,.01h0c.67,2.49-1.16,4.98-3.73,5.04-5.23.13-10.47-.29-15.71-.3-1.95.04-4.24-1.47-4.24-3.37Z"/>
      </g>
      <g>
        <path class="cls-1" d="m226.79,103.5c1.61-1.25,3.55-.87,5.41-.48.72.15,1.23.79,1.21,1.53-.01.55-.03,1.14-.05,1.7-.02.87-.78,1.55-1.65,1.48-1.07-.09-2.08-.43-3.04-.91-.83-.42-1.82-.02-2.13.85-.8,2.25-1.39,4.57-1.92,6.9-.21.96.51,1.86,1.49,1.86.26,0,.52,0,.78,0,.85,0,1.53.69,1.52,1.53,0,.03,0,.05,0,.08,0,.83-.67,1.5-1.5,1.51-.57,0-1.14.02-1.7.03-.73.01-1.36.55-1.47,1.28-1.07,6.87-1.5,14.17-5.29,20.17-2,3.31-6.88,5.55-10.07,3.06-.62-.49-.76-1.38-.32-2.05.37-.56.73-1.13,1.17-1.61.48-.5,1.24-.58,1.85-.24s1.2.71,1.79,1.08c.78.49,1.82.18,2.21-.65,2.78-6.03,3.23-12.82,4.14-19.35.12-.89-.54-1.7-1.44-1.74-.29-.01-.57-.02-.86-.04-.81-.03-1.45-.69-1.46-1.49,0,0,0-.02,0-.03,0-.84.65-1.53,1.49-1.54.62-.01,1.23-.02,1.85-.03.7-.01,1.3-.49,1.46-1.17,1.03-4.44,2.38-9.26,6.52-11.73Z"/>
        <path class="cls-1" d="m259.2,103.97c1.77-.29,3.54-.58,5.31-.85.5-.08.93.37.84.87-1.12,6.02-2.39,12.01-3.57,18.03,2.45-2.63,4.53-6.41,8.38-7.05,1.49-.17,3.02,1.19,2.8,2.74-.46,4.74-1.8,9.35-2.62,14.04-.1.55.58.91.97.51.5-.51.99-1.02,1.49-1.53.32-.33.87-.12.89.33,0,.1.01.21.02.31.04.79-.28,1.56-.86,2.11-1.06.98-2.14,1.96-3.34,2.73-1.67,1.06-3.88-.5-3.37-2.41,0-.01,0-.03.01-.04.72-4.98,2.35-9.82,2.58-14.86.02-.46-.54-.7-.87-.39-2.59,2.43-5.01,5.12-6.69,8.27-1.1,3.04-1.44,6.31-2.15,9.46-.91-.04-2.72-.12-3.62-.17,1.38-9.46,3.54-18.78,5.24-28.19.06-.35-.13-.69-.47-.82-.41-.15-.9-.33-1.31-.48-.33-.12-.53-.46-.46-.81.07-.39.15-.83.21-1.21.05-.3.28-.53.58-.57Z"/>
        <path class="cls-1" d="m277.21,108.55c-.16-.73.75-1.2,1.26-.66,2.93,3.12,4.23,7.54,4.41,11.78.52,7.84-2.17,16.34-8.18,21.59-.57.5-1.44-.09-1.18-.8,2.22-6.08,5.2-11.99,5.47-18.59.58-4.56-.82-8.92-1.78-13.32Z"/>
        <path class="cls-1" d="m236.57,110.14c1.08-1.46,2.55-2.56,4.03-3.56-2.49,6.24-5.6,12.35-6.33,19.14-1.29,5.72-.24,11.5,1.21,17.07-3.42-1.68-4.59-5.54-5.24-8.99-1.41-8.36,1.41-16.93,6.33-23.66Z"/>
        <path class="cls-1" d="m173.03,115.66c2.94-1.31,7.26-1.87,9.4,1.09.08.17.15.34.21.51.81,2.61-2.8,4.28-4.37,2.05l-.04-.06c-.83-1.17-2.46-1.36-3.58-.46-3.6,2.91-5.38,8.02-3.93,12.48,1.86,3.39,5.67,1.2,8.26-.47.49-.31,1.13-.2,1.48.25,0,0,0,.01.01.02.37.48.29,1.17-.18,1.55-2.37,1.95-4.93,3.86-8.05,4.23-2.8.39-6.04-1.26-6.64-4.18-1.14-6.39,1.46-13.89,7.43-17.02Z"/>
        <path class="cls-1" d="m241.87,116.42c1.12-1.02,2.49-1.39,3.91-1.48,2.34-.15,4.37,1.69,4.47,4.03,0,.09,0,.18,0,.27.09,3.07-1.87,5.83-4.74,6.92-1.18.45-2.36.9-3.53,1.35s-1.8,1.63-1.57,2.82c.13.65.29,1.29.57,1.87.43.88,1.53,1.25,2.43.85,1.12-.5,2.2-1.07,3.29-1.62.87-.44,1.76.59,1.19,1.38-2.07,2.86-5.97,4.93-8.9,3.39-1.09-.57-1.83-1.65-2.18-2.83-1.73-5.89.28-13.05,5.05-16.97Zm.45,7.76c1.07-.42,2.14-.85,3.2-1.29,1.21-.5,1.89-1.79,1.66-3.08,0-.02,0-.04,0-.05-.27-1.53-2.18-2.14-3.26-1.03-1.18,1.21-2.11,2.63-2.79,4.2-.33.76.42,1.56,1.2,1.26Z"/>
        <path class="cls-1" d="m190.72,121.27s0-.02,0-.04c.02-.97.81-1.75,1.78-1.75,4.69.01,9.38.02,14.07,0,.98,0,1.77.78,1.78,1.76,0,.03,0,.06,0,.09,0,.99-.79,1.8-1.78,1.8-4.69,0-9.38-.1-14.06-.07-1,0-1.81-.81-1.79-1.8Z"/>
        <path class="cls-1" d="m190.74,128.16v-.49c-.01-.98.78-1.79,1.77-1.79,4.7-.02,9.39-.02,14.08.03.98,0,1.76.81,1.77,1.78,0,.14,0,.27,0,.41,0,.99-.8,1.79-1.79,1.79-4.67-.03-9.35-.03-14.02.04-.99.01-1.8-.78-1.81-1.76Z"/>
        <path class="cls-1" d="m249.41,132.93c1.07-.45,2.14-.94,3.32-1.07,1.74,3.85-1.79,7.52-4.3,10.09.8-2.95,1.73-5.95.98-9.02Z"/>
      </g>
    </g>
  </g>
</svg>