<?xml version="1.0" encoding="UTF-8"?>
<svg id="Capa_2" data-name="Capa 2" xmlns="http://www.w3.org/2000/svg" viewBox="0 0 815.16 543.81">
  <defs>
    <style>
      .cls-1 {
        fill: #123257;
        stroke-width: 0px;
      }
    </style>
  </defs>
  <g id="Capa_1-2" data-name="Capa 1">
    <g>
      <path class="cls-1" d="m114.94,140.93c2.52-2.65.16-6.54-2.29-8.28-6.78-4.53-13.33-9.43-20.24-13.77-1.47-1.05-3.39-1.11-5.08-.7-2.23,1.38-2.44,4.61-.77,6.52,3.11,3.66,7.37,6.05,11.26,8.79,4.28,2.72,8.23,6.03,12.86,8.18,1.4.8,3.37.81,4.26-.74Z"/>
      <path class="cls-1" d="m356.41,204.72c3.52.53,7.13.37,10.69.49,3.26-.05,6.74.22,9.77-1.26,1.56-1.17,1.02-2.76.2-4.18-.59-1.03-1.7-1.67-2.89-1.66-5.71,0-11.42.02-17.12-.07-1.49-.21-3.66.15-3.66,1.61.02.71.07,1.42.16,2.13.19,1.51,1.34,2.71,2.85,2.94Z"/>
      <path class="cls-1" d="m160.89,204.38c-8.22-4.79-18.23-5.55-27.42-3.72-6.84,1.77-13.63,5.43-17.18,11.79-3.22,4.51-3.79,10.22-3.13,15.59,1.59,4.38,5.08,8.54,9.95,9.15,6.53,1.37,12.67-2.06,18.96-3.03,8.21,1,16.15,6.02,24.6,3.56,6.32-3.47,9.31-11.86,6.39-18.49-1.8-6.41-6.69-11.36-12.17-14.85Z"/>
      <path class="cls-1" d="m291.13,247.09c-12.63.17-25.27-.22-37.88.18-4.26,1.18-4.48,6.33-3.03,9.75,1.74,1.15,3.8,1.43,5.85,1.4,13.33.09,26.66.15,39.99.04,4.23-.18,5.34-5.7,3.54-8.78-2.03-2.4-5.54-2.64-8.47-2.59Z"/>
      <path class="cls-1" d="m511.95,229.02c-1.46,4.16-3.84,7.92-5.18,12.13,1.45,1.19,3.37,1.43,5.2,1.24,2.32-1.57,3.28-4.39,4.69-6.7,9-17.99,10.04-39.36,4.53-58.57-1.07-3.58-2.13-7.59-5.44-9.78-1.75-.59-4.69-.47-4.72,1.93,2.12,7.18,5.44,14.29,5.04,21.95.06,3.68,1.34,7.26,1.02,10.98-.65,9.09-1.9,18.25-5.14,26.82Z"/>
      <path class="cls-1" d="m317.06,284.28c-11.65-.32-23.32-.04-34.97-.13-2.88-.14-5.86.46-8.66-.31-3.4-1.81-5.67-5.05-8.69-7.34-14.52-11.53-31.5-20.09-49.52-24.54.01-2.75-1.34-6.4,1.69-8.05,5.33-3.92,9.82-8.79,14.49-13.44,6.7-7.2,11.55-15.84,17.08-23.9,10.17-1.17,20.21-5.18,27.45-12.58,9.86-9.14,14.6-22.66,15.19-35.86-.22-6.11-2.21-11.97-3-17.96,1.27-6.69,1.41-13.5,2.02-20.27,9.64-.42,19.3-.05,28.94-.12,3.33-.12,6.78.42,10.02-.57,4.86-1.54,3.85-10.18-1.15-10.76-12.86-.51-25.74.06-38.61-.31-.87-7.45-1.99-14.87-3.5-22.22,11.76-.24,23.53-.12,35.29-.09,1.94,0,3.93-.04,5.75-.77,3.86-2.89,2.32-10.76-2.97-10.59-14.16-.34-28.35.25-42.5-.32-5.09-13.98-13.69-26.62-24.5-36.81-17.38-17.11-40.11-28.21-63.86-33.23-29.76-5.51-61.6-.28-87.58,15.45-7.86,4.37-14.96,9.97-23.05,13.95-7.82,4.65-16.72,6.79-25.21,9.81-3.27.72-3.22,4.95-1.25,6.98,3.39,3.55,7.79,5.96,12.13,8.16.04,3.2-1.96,5.88-2.82,8.86-4.24,12.79-6.89,26.17-7.59,39.62-1.8,13.01.55,26.15-.56,39.2-.08,3.59-.05,7.2-.58,10.77-1.26,9.39-.05,18.85.94,28.19.74,6.16,2.76,12.07,3.69,18.2-4.25-2.42-7.56-6.34-12.23-8.03-10.78-1.84-20.57,4.74-28.24,11.55-9.97,9.04-18.6,20.73-20.42,34.39-1.29,11.5,1.9,23.53,9.05,32.67,2.82,3.19,6.24,5.9,8.39,9.65,1.57,13.12,6,25.91,12.8,37.25,6.26,9.89,14.86,19.18,26.37,22.69,8.34,2.42,17.16,1.34,25.58-.04,4.61-.67,8.98-2.81,13.7-2.69-.6,6.79-1.46,13.56-2.09,20.35.19,10.31-1.57,20.55-.96,30.87,16.58,4.81,33.94,5.91,51.01,7.85,6.01.82,12.13-.03,18.13,1.02,10.59.78,21.22.17,31.83.38,9.68-.22,19.43.56,29.04-.84,3.31-.34,6.65-.05,9.97-.25,21.95-2.23,44.01-4.37,65.57-9.33,2.53-.65,5.45-.7,7.45-2.61,1.48-5.27-.17-10.68,0-16.02-1.84-26.8-6.77-54.79-22.93-76.98,7.95.68,15.93.1,23.9.34,4.22-.05,8.53.47,12.68-.53,4.21-2.79,2.48-10.52-2.72-10.71Zm-271.67-8.88c-4.89,3.5-11.31,3.76-16.98,2.4-6.13-1.81-10.47-6.94-13.93-12.04-6.68-10.54-7.19-24.62-1.41-35.66,4.82-9.05,12.27-16.64,21.05-21.88,4.99-2.81,11.91-4.91,16.83-.88,5.02,3.3,6.2,9.5,7.94,14.81-3.64.05-7.53-.7-10.94.94-1.56.66-3.05,1.48-4.61,2.17-1-3.64-2.52-8.72-7.08-8.86-3.79.87-2.87,5.68-1.86,8.37,2.08,4.34,3.18,9.02,4.11,13.72-5.28-1.45-8.98-5.59-12.85-9.16-1.5.23-3.08.26-4.47.93-1.54,2.41-.2,5.38,1.16,7.55,3.46,4.56,8.94,6.81,13.76,9.6.38,2.85-.84,6.5-4.18,6.7-4.78.71-6.94-4.45-10.16-6.92-3.36-.88-6,3.58-4.12,6.33,2.88,8.58,14.34,11.16,21.72,6.99,3.5-2.33,4.24-6.84,4.93-10.67,2.35.1,4.6.85,6.91,1.26,2.8-.46,6.46-1.2,7.52-4.26.66-1.55.3-3.3.4-4.92-2.01.38-3.98,1.05-6.04,1.18-3.82-.21-6.79-3.89-5.91-7.71,1.38-2.5,3-5.41,6.07-5.98,3.8-.63,8.27-.46,11.06,2.56,3.4,4.07,3.39,9.89,2.23,14.8-3.73,11.42-10.47,22.53-21.15,28.63Zm46.67-.3c-3.13,2.22-5.89,4.93-9.09,7.04-1.75.07-3.09-1.47-4.49-2.33-3.32-2.98-6.55-6.15-9.27-9.7-1.22-1.9-3.24-4.19-1.86-6.53,4.12-7.23,7.99-14.99,8.67-23.42.02-8.25-6.12-14.47-9.17-21.69-.91-1.74-.74-3.75-.76-5.64,6.77,9.8,13.02,20.31,22.5,27.81,9.65,9.18,21.78,15.17,33.86,20.47-10.75,3.04-21.23,7.48-30.39,13.99Zm113.4-34.61c-1.8,7.27,1.95,15.77-2.79,22.3-8.15,12.23-22.47,21.54-37.58,20.36-6.9.56-14.17-.92-19.71-5.23-3.58-2.83-4.63-7.54-4.6-11.88,6.04-.04,12.03,1.58,18.07.64,7.35-.59,15.06-1.39,21.5-5.31,2.27-1.79,1.64-4.84.48-7.11-3.4-.76-6.46,1.23-9.7,1.91-12.28,3.29-25.21,2.1-37.47-.66-17.03-4.06-32.57-13.67-44.29-26.62-15.7-15.93-23.76-38.52-23.25-60.73.11-7.31-.5-14.68.89-21.91.32-9.39-.05-18.79.15-28.18,1.58-15.38,5.6-31.15,15.32-43.51,3.53-3.8,7.09-7.59,11-11.01,1.18-1.19,2.79-1.62,4.41-1.77,7.02,12.11,18.96,20.69,31.8,25.81,5.15,2.08,10.68,4.51,16.35,3.34-1.43-7.05-4.71-13.73-5-21.04,1.47-.5,2.53.95,3.63,1.64,9.81,8.39,22.24,12.87,34.41,16.63,5.92,1.18,12.28,2.74,18.25,1.17,3.3-4.38-1.5-9.17-4.34-12.34,3.3.7,6.65.14,9.98.3,11.61,3.7,19.28,14.36,23.84,25.14,5.41,13.74,7.68,28.53,8.62,43.2.84,2.85-.3,6.81,2.55,8.67,2.43,1.27,5.55-.15,6.72-2.52,3.62-5.92,8.63-11.56,15.56-13.45,5.17-.89,11.37-.71,15.09,3.57,5.88,5.29,6.72,13.8,6.07,21.22-1.22,13.42-10.58,25.05-22.32,31.08-5.24,2.49-11.05,3.24-16.81,2.97-1.37,1.46-2.47,3.14-3.33,4.95-6.69,12.91-16.12,24.31-27.35,33.51-2.05,1.62-4.36,2.94-6.15,4.86Z"/>
      <path class="cls-1" d="m180.4,118.31c-6.03,3.28-11.8,7-17.76,10.4-4.51,2.51-8.57,5.91-13.58,7.42-1.96.85-5.16,1.31-5.09,4.08-.02,2.12-.38,5.03,1.82,6.25,2.42,1.65,5.64.74,7.88-.8,8.51-5.54,17.29-10.64,25.85-16.1,2.59-1.72,5.65-3.04,7.43-5.71.39-1.55-.34-3.1-.97-4.47-1.07-2.12-3.72-1.46-5.58-1.07Z"/>
      <path class="cls-1" d="m166.49,150.49c-4.15,1.13-6.98,5.83-5.79,10.02.8,5.39,7.72,8.34,12.3,5.59,2.66-1.26,3.27-4.47,3.75-7.08.29-5.22-5.02-10.34-10.26-8.53Z"/>
      <path class="cls-1" d="m491.67,173.39c-2.7-1.1-5.19,1.31-5.39,3.95-2,16.71-5.54,33.2-8.22,49.8-.67,2.87,1.93,4.49,4.45,4.17.24-.03.45-.2.55-.42,3.57-8.01,3.81-17.13,6.16-25.54,1.5-4.64,6.11-8.27,11.04-8.12.31,0,.58.24.65.54.46,1.74,1.01,3.51.84,5.34-.63,4.94-.82,9.93-1.88,14.82-.99,4.17-1.12,8.5-.67,12.74.01.13.06.26.13.36,1.53,2.15,4.99,1.53,7.01.14.22-.15.32-.43.27-.7-1.55-8.19.58-16.34,2.25-24.32,0-.02,0-.04.01-.07.59-4.85.75-10.91-3.18-14.44-.03-.03-.07-.06-.11-.08-4.39-3.09-9.49-.64-13.59,1.84-.49.3-1.11-.08-1.08-.65.26-4.96,2.53-9.61,2.42-14.63-.03-1.7.26-3.97-1.67-4.73Z"/>
      <path class="cls-1" d="m121.79,189.05c2.41-1.62.43-5.05,2.18-7.09,1.35-1.22,3.12-1.84,4.67-2.75-.22-2.36-.55-5.94-3.64-6.05-5.75-1.15-11.62,3.15-11.99,9.03-.54,4.46,4.47,9.28,8.78,6.86Z"/>
      <path class="cls-1" d="m272.84,470.82c-.17,16.62.13,33.25-.27,49.86-4.78,6.72-15.78,10.45-22.65,4.65-2.8-2.5-3.71-6.5-3.79-10.11-.02-14.81.08-29.63-.02-44.44-6.35-.1-12.7-.21-19.04.01-.04,17.47,0,34.95-.03,52.44.04,8.99,6.49,17.66,15.43,19.56,8.02,1.57,16.96,1.35,24.1-3.07,2.24-1.29,3.77-3.5,6.11-4.63.45,2.4,1.06,4.77,1.56,7.17,5.94.39,11.91.19,17.86.22,0-23.9-.01-47.79,0-71.68-6.42-.14-12.85-.18-19.27.02Z"/>
      <path class="cls-1" d="m381.34,251.04c3.54.61,7.8.67,10.56-2.03,3.14-2.56,4.31-6.57,5.72-10.19.03-.07.05-.14.07-.21,3.03-9.62,4.26-19.67,6.18-29.55.73-3.02.99-6.26,2.47-8.99.53-.98,1.56-1.6,2.68-1.57,2.52.07,5.14.41,7.51-.37.68-.22,1.25-.69,1.62-1.31.7-1.19,1.18-2.63,0-3.69-1.51-1.94-3.78-2.06-6.09-1.91-2.01.13-3.52-1.77-3-3.72.89-3.37,2.02-6.7,4.37-9.29.54-.59,1.29-.93,2.09-.96,1.66-.06,3.32-.11,4.98-.15.95-.02,1.87-.48,2.37-1.28.61-.98,1.03-2.05,1.24-3.17.27-1.42-.62-2.83-2-3.26-5.58-1.7-12.12.55-15.83,5-3.12,4.35-3.74,9.76-4.97,14.87-.3,1.24-1.35,2.17-2.62,2.25-1.97.13-4.01,0-5.81.66-1.14.42-1.87,1.56-1.85,2.78,0,.18,0,.36,0,.54.03,1.58,1.3,2.87,2.88,2.9.39,0,.78.01,1.18.01,1.84.01,3.23,1.68,2.89,3.49-.27,1.42-.7,2.82-.99,4.23-2.65,11.83-3.07,24.4-8.48,35.44-1.02,2.26-3.3,2.6-5.51,2.62-1.22.01-2.34.75-2.75,1.9-.66,1.86-.88,4.01,1.07,4.95Z"/>
      <path class="cls-1" d="m196.76,500.4c-6.03-2.39-12.92-2.78-18.23-6.79-1.33-2.2-.69-5.2,1.32-6.74,3.07-3.49,8.15-2.67,12.3-2.77,5.43-.15,10.2,2.77,14.88,5.14,2.09-4.13,3.88-8.41,5.27-12.83-4.93-3.17-10.59-4.88-16.25-6.15-7.51-.44-15.37-.74-22.39,2.41-6.45,2.74-12.62,7.99-13.91,15.2-1.95,6.39.47,13.81,5.6,18.04,5.04,3.55,10.95,5.72,16.94,7.05,5.19,1.36,10.94,2.32,14.74,6.49-.04,1.75.23,3.58-.31,5.29-1.37,2.08-3.79,3.09-5.98,4.07-9.27,1.6-18.7-1.25-26.67-5.94-1.9,4.37-3.27,8.96-5.23,13.32,4.71,3.83,10.83,5.19,16.59,6.6,10.86,2.1,23.3,1.35,31.93-6.34,7-6.99,9.07-19.32,2.96-27.5-3.33-4.38-8.62-6.55-13.56-8.55Z"/>
      <path class="cls-1" d="m422.48,235.61c.77,3.29.96,7.16,3.71,9.53.22.18.45.32.7.43,2.23.95,4.62-1.05,4.38-3.46-.25-2.51-1.2-5.01-1.58-7.47-4.12-18.87-.42-38.8,7.89-56.03.93-2.07,2.56-3.93,3.35-6.05.7-1.86-.4-4-2.35-4.36-1.17-.22-2.4.12-3.28,1.17-3.65,4.12-5.75,9.3-7.7,14.38-5.71,16.55-8.75,34.52-5.13,51.87Z"/>
      <path class="cls-1" d="m352.73,218.16c1.33.71,2.77,1.19,4.31,1.06,5.27-.11,10.55.17,15.81-.16.19-.02.36-.05.53-.09,3.38-.79,3.12-5.75-.28-6.46-4.71-.99-9.74.33-14.42-1.05-1.9-.32-3.89-1.26-5.8-.56-1.32,1.07-1.77,2.57-1.9,4.14-.1,1.29.61,2.51,1.75,3.12Z"/>
      <path class="cls-1" d="m95.51,148.52c-4.63,1.3-7.98,7.23-5.4,11.63.95,2.97,3.77,5.4,7,5.12,5.95.65,10.74-6.91,8.07-12.12-1.31-3.71-6-5.88-9.67-4.63Z"/>
      <path class="cls-1" d="m86.89,442.16c-7.49.03-14.98-.16-22.47.09-5.2,15.8-10.57,31.55-16.09,47.24-5.9,17.71-11.94,35.39-18.21,52.97,6.94,0,13.89.14,20.82-.12l.7-.48c2.07-6.96,4.73-13.72,6.83-20.67,3.81-.85,7.74-.37,11.61-.46,7.66.14,15.33-.19,22.99.08,2.71,7.03,5.08,14.21,7.27,21.42,7.3.66,14.67.18,22,.14-3.28-10.03-7.29-19.81-10.67-29.81-8.12-23.51-16.68-46.88-24.78-70.4Zm-23.64,62c2.89-8.49,5.54-17.07,8.41-25.56,1.29-3.56,1.63-7.62,3.95-10.69,3.94,12.16,8.13,24.24,12.45,36.27-8.27-.07-16.54-.05-24.81-.02Z"/>
      <path class="cls-1" d="m489.11,266.16c25.35.06,50.7-.04,76.05.04,2.43.14,4.97-.6,6.71-2.35.52-2.04.63-4.34-.17-6.3-.85-2.16-3.54-2.52-5.56-2.46-26.31.05-52.61.02-78.91.04-3.56,2.68-3.5,10.8,1.88,11.03Z"/>
      <path class="cls-1" d="m462.62,238.06c.77,1.65,2.34,2.74,4.19,2.04,3.63-3.55,5.27-8.82,5.35-13.79.07-2.55-2.97-2.89-4.83-2.24-1.71,1.52-2.09,3.86-2.4,6.01-.35,2.77-1.91,5.21-2.31,7.98Z"/>
      <path class="cls-1" d="m664.18,158.2c-.14-1.71-1.39-3.5-3.12-3.87-5.26,1.66-10.22,4.72-15.9,4.72-4.82-.4-9.64-1.66-13.58-4.57-2.03-1.9-6.61-1.45-6.61.84-.02,2.27-.48,4.89,1.29,6.68,9.53,6.25,22.2,7.52,32.71,3.05,2.53-1.34,5.67-3.59,5.21-6.85Z"/>
      <path class="cls-1" d="m710.4,120.08c3.26.51,6.39-1.09,9.67-.92,4.22-.3,8.21,1.41,12,3.06,3.07,1.2,5.17,4.74,8.82,4.1,4.15-2.94,1.91-8.95-1.79-11.18-7.7-4.92-17.39-7.57-26.41-5.35-4.55.75-5.9,7.64-2.29,10.29Z"/>
      <path class="cls-1" d="m586.14,439.84c.6,11.52-.14,23.07.5,34.59-2.57-1.05-5.04-2.37-7.7-3.19-5.44-1.73-11.26-1.44-16.87-1.06-10.13,1.31-19.29,8.27-23.42,17.59-4.12,8.49-3.89,18.16-3.44,27.35,1.47,7.16,3.83,14.5,9.05,19.85,11.18,12.15,32.95,11.68,43.6-.95.11,2.78.74,5.49,1.38,8.2,5.94.45,11.91.29,17.87.17.02-34.17.04-68.33-.01-102.49-6.99-.09-13.97-.12-20.96-.06Zm.29,59.33c-.23,7.54.44,15.19-.42,22.67-4.03,4.33-10.01,6.88-15.96,6.31-5.46.3-10.48-3.41-12.56-8.33-2.63-5.51-2.57-11.71-2.35-17.66.66-7.37,4.76-15.38,12.36-17.48,6.25-1.35,13.36-.32,18.35,3.91,1.14,3.33.31,7.08.58,10.58Z"/>
      <path class="cls-1" d="m691.89,189.39c3.55,1.25,8.35,1.69,10.98-1.59.39-1.54.77-3.64-.66-4.78-3.36-2.5-7.81-2.21-11.78-2.18-2.58.39-4.34,3.56-2.99,5.89.77,1.73,2.9,1.94,4.45,2.66Z"/>
      <path class="cls-1" d="m645.38,438.87c-3.15-2.29-7.35-2.17-10.98-1.41-2.08.69-3.94,1.94-5.52,3.44-5.06,5.56-3.28,15.7,3.88,18.56,4.07,1.28,9.01,1.49,12.72-.96,3.93-2.14,6.03-6.92,5.64-11.28-.73-3.41-2.99-6.3-5.74-8.35Z"/>
      <path class="cls-1" d="m627.86,470.87c.09,23.87-.08,47.75.07,71.63,6.73.03,13.46.11,20.19.07-.02-23.9-.05-47.8.02-71.7-6.76-.21-13.53-.3-20.28,0Z"/>
      <path class="cls-1" d="m732.78,440.13c-6.92-.8-13.94-.27-20.89-.25-.08,11.54.11,23.07.03,34.6-5.32-2.4-10.77-5.2-16.82-4.54-10.79-.71-21.45,4.93-27.53,13.74-4.53,6.9-6.98,15.22-6.55,23.48-.64,12.61,4.61,26.56,15.9,33.15,6.36,3.59,14.03,3.85,21.1,2.88,5.82-1.03,10.35-4.95,15.05-8.2.54,2.36.96,4.76,1.22,7.19,6.16.42,12.38.56,18.54.1-.06-34.05-.13-68.1-.05-102.15Zm-22.58,83.1c-3.94,2.49-8.22,5.43-13.11,4.93-5.31.04-10.97-2.8-13.15-7.82-3.96-9.06-3.92-19.9.66-28.72,1.97-2.9,4.6-5.54,7.89-6.9,5.54-1.17,11.89-.95,16.8,2.25,1.04.87,2.44,1.88,2.4,3.41.18,9.28.17,18.56.23,27.85-.04,1.79.15,4.01-1.72,5Z"/>
      <path class="cls-1" d="m636.48,119.59c1.97-.46,3.99-.66,5.99-1.03,5.2-1.11,10.3.96,15.43,1.63,1.61-1.16,3.66-2.19,3.96-4.39.3-3.13-2.46-5.63-5.37-6.04-5.4-1.1-11.05-2.43-16.49-.91-6.79,1.59-14.11,3.95-18.32,9.91-1.94,2.6.05,6.79,3.41,6.48,4.11-1.19,7.27-4.45,11.39-5.65Z"/>
      <path class="cls-1" d="m771.12,373.17c.26-5.39-1-10.67-1.04-16.04-1.68-15.57-3.61-31.48-10.06-45.92-5.71-12.06-14.11-23.7-26.28-29.8-8.68-5.63-18.17-10.19-28.29-12.48-2.86-.69-5.76-1.14-8.56-1.98,3.48-2.15,7.55-3,11.24-4.73,19.91-8.04,36.95-23.28,46.45-42.62,3.32-7.52,5.96-15.36,7.54-23.43,4.36-21.4.82-43.33,2.3-64.93,1.54-13.65,2.13-27.41,1.64-41.16-1.51-16.3-6.08-32.7-15.7-46.14-10.25-15.21-25.41-26.81-42.27-33.81-11.32-5.06-23.49-8.25-35.85-9.23-16.68-2.19-33.74-.29-49.81,4.58-11.23,3.42-21.5,9.33-31.28,15.73-14.92,10.78-27.49,25.15-34.94,42.08-3.36,8.22-6.78,16.61-7.56,25.55-19.52-.21-39.04,0-58.56-.08-2.95.02-5.92-.05-8.84.44-4.68,1.78-4.24,10.04.91,10.94,21.51.22,43.05-.27,64.56.24-.69,10.12-.29,20.26.02,30.37-8.67,3.43-15.31,11.55-17.52,20.57-5.27,22.25,9.24,46.87,30.85,53.86,3.41,1.08,7.03,1.37,10.41,2.55,1.27,1.12,2.01,2.69,2.76,4.19,6.81,15.43,19.04,27.84,32.64,37.5.71.7,2,1.3,1.79,2.52-.36,3.99.25,8.03-.45,11.98-9.39,1.65-18.53,4.52-27.39,8.03-8.32,3.25-15.67,8.42-23.72,12.2-8.69,5.91-16.02,13.84-21.32,22.92-17.9.34-35.8-.01-53.69.26-3.47.16-7.04-.48-10.42.4-5.51,1.53-5.06,12.26,1.39,11.65,18.38-.08,36.77.16,55.15-.13-3.87,10.89-6.58,22.25-7.36,33.81-10.87.22-21.75-.1-32.62.15-5.4,1.56-4.86,11.44.96,11.94,10.16.31,20.35-.29,30.51.25-1.08,8.12-.67,16.35-.5,24.52,17.78,5.02,36.2,7.2,54.44,9.86,8.42,1.14,16.92,1.4,25.37,2.36,8.38-.11,16.68,1.43,25.07,1.05,17.01.33,34.01.22,51.02-.06,20.97-.94,41.85-3.16,62.58-6.52,11.58-2.29,23.29-4.09,34.58-7.6.58-5.28-.37-10.56-.15-15.84Zm-82.01-91.98c-5.42,9.16-15.69,14.45-25.99,15.9-12.51.98-25.17-3.23-35.01-10.93-4.4-3.17-9.66-6.42-10.91-12.1-.25-6.03-.02-12.08-.02-18.11,18.37,8.55,38.6,13.58,58.93,12.76,4.62-.53,9.27-.62,13.91-.76-.17,4.39.76,9.04-.91,13.24Zm-15.05-21.17c-5.68.16-11.29-1.02-16.96-.95-25.63-3.2-50.4-15.97-66.29-36.59-5.86-6.83-9.34-15.18-13.02-23.28-5.84-.69-11.85-1.16-17.34-3.4-10.9-5.06-19.18-15.3-21.96-26.98-1.05-6.3-1.95-13.18,1.11-19.09,1.89-4.22,5.53-7.58,9.88-9.14,6.38-1.63,13.9-.35,18.37,4.8,3.55,2.97,4.74,7.9,8.6,10.56,2.11.63,4.68.5,6.26-1.24,5.07-5.68,6.08-13.53,6.92-20.79,1.49-15.33,2.87-30.75,6.52-45.76,2.13-7.35,4.5-14.78,8.87-21.15,2.55-3.67,4.63-8.2,8.95-10.11,13.15,11.4,29.9,17.97,46.99,20.53,16.05,2.52,32.56,3.17,48.6.26,10.21-2.35,20.97-4.69,29.4-11.31,6.55,7.41,11.7,16.23,13.95,25.92,3.22,13.68,2.37,27.89,1.32,41.78-.79,20.71,2.52,41.71-1.92,62.18-2.39,14.23-9.4,27.44-19.01,38.1-11.01,11-24.82,19.66-40.19,22.83-6.25,1.53-12.65,2.29-19.05,2.83Z"/>
      <path class="cls-1" d="m325.03,188.16c-6.14.23-12.54,2.62-16.13,7.84-4.29,5.38-6.08,12.39-5.9,19.2-.09,5.94,2.97,11.91,8.02,15.11,4.74,2.8,10.71,2.45,15.69.5,2.12-.83,4.18-2.33,5.41-4.29,2.26-3.6-2.91-7.41-5.69-4.19-.02.02-.04.05-.06.07-4.24,4.71-14,3.41-15.22-3.37-2.4-6.25.13-13.01,3.42-18.41,1.7-2.87,4.73-4.55,8-4.9,3.17-1.24,5.35,1.95,7.8,3.33.43.18.86.26,1.28.27,2.54.04,4.23-2.67,3.3-5.04-1.43-3.64-6.11-5.7-9.92-6.12Z"/>
      <path class="cls-1" d="m707.95,203.61c-3.3,2.11-6.01,5.08-9.57,6.78-7.07,3.53-15.28,3.52-22.9,2.27-6.25-1.18-11.07-5.53-16.44-8.55-2.53.54-5.48,4.73-2.86,6.96,6.91,7.88,17.54,11.73,27.9,11.4,10.25-.08,21.06-3.74,27.9-11.66,1.2-3.23-1.48-5.78-4.03-7.2Z"/>
      <path class="cls-1" d="m737.6,160.56c1.11-1.92.88-5.12-1.65-5.71-2.73.22-5.07,1.81-7.67,2.48-5.91,1.93-12.3.06-17.62-2.71-1.37-.56-2.7-1.59-4.23-1.44-3.48,1.93-3.56,7.79.06,9.61,6.35,4.75,14.71,5.15,22.27,4.06,3.63-.78,7.21-2.8,8.84-6.29Z"/>
      <path class="cls-1" d="m815.09,529.11c-2.78,1.06-7,1.62-7.71-2.26-.65-10.89.02-21.86-.32-32.77-.65-6.85-3.04-13.94-8.25-18.65-8.45-6.36-19.54-5.94-29.53-5.08-6.94,1.44-14.24,3.79-19.31,8.95.58,4.58,4.13,8.17,6.38,12.09,2.77-1.03,5.06-2.99,7.77-4.16,5.89-2.84,12.92-4.24,19.25-2.23,4.1,2.78,5.93,8.23,4.81,13.05-5.77.33-11.62-.43-17.31.85-8.28,1.38-17.15,4.86-21.52,12.51-3.04,4.66-2.48,10.42-2.24,15.71,1.41,7.04,6.81,13.32,13.78,15.34,6.45,1.91,13.57,1.84,19.88-.57,3.51-1.1,5.23-4.71,8.39-6.4,1.65,3.06,3.86,6.24,7.44,7.16,6.08,1.69,12.73.82,18.51-1.58.06-3.99.08-7.98-.02-11.96Zm-27.1-6.17c-1.69,2.92-4.17,5.98-7.83,6.16-4.06.39-8.88,1.03-12.24-1.77-4.19-4-3.49-11.7,1.83-14.4,5.6-2.65,11.96-3.66,18.13-3.6.58,4.48,1.01,9.14.11,13.61Z"/>
      <path class="cls-1" d="m433.44,472.83c-5.54-3.21-12.15-3.02-18.32-2.69-7.03.79-13.08,4.83-17.75,9.95-2.98-5.7-8.88-9.45-15.25-9.98-6.22-.33-12.83-.57-18.5,2.45-2.98,1.26-5.17,3.68-7.47,5.85-.24-2.59-.5-5.18-.88-7.74-6.12.11-12.23-.1-18.34.12.16,23.9-.03,47.81.03,71.71,6.48-.08,12.96.09,19.45,0,.28-16.77-.38-33.56.34-50.32,2.84-7.41,13.58-10.7,20.04-5.73,2.07,2.35,3.41,5.47,3.29,8.64.01,15.8-.01,31.6,0,47.4,6.68.03,13.36-.04,20.05.03.09-16.41-.14-32.83.1-49.24,2.39-7.98,13.65-11.92,20.37-6.7,2.06,1.91,3.39,4.72,3.45,7.54.12,15.89-.03,31.79.04,47.68h-.05c.04.19.07.38.11.58,6.62.42,13.25-.09,19.88.39.26-16.54-.03-33.09.14-49.64.4-7.99-3.44-16.49-10.72-20.3Z"/>
      <path class="cls-1" d="m506.71,472.62c-6.39-3.24-13.72-2.83-20.65-2.46-7.5.97-14.62,4.69-19.78,10.21-11.37,13.6-12.4,34.65-2.93,49.52,5.51,8.85,16.07,13.26,26.19,13.7,10.65.74,22.26-.81,30.98-7.41-1.01-4.13-2.56-8.09-3.7-12.18-6.34,2.46-12.73,5.75-19.75,5.16-7.79.55-16.3-3.35-19.01-11.08l-.55-1.76c-.14-.89-.37-2.33-.49-3.1,15.24-.26,30.5.27,45.74-.31.71-4.73,1.75-9.56.81-14.35-1.18-10.51-6.55-21.77-16.86-25.94Zm-29.71,27.42c.81-4.27,1.48-9.02,4.86-12.11,3.76-3.97,9.79-4.45,14.85-3.38,6.17,2.39,9.59,9.17,9.69,15.54-9.8.04-19.6.12-29.4-.05Z"/>
      <path class="cls-1" d="m460.86,222.29c-.45-1.14-1.32-1.89-2.55-1.14-2.95,2.09-6.62,4.07-10.28,2.76-.34-.12-.66-.29-.95-.5-1.49-1.1-2.39-2.72-2.86-4.5-.75-2.86,1.47-5.63,4.43-5.66,4.38-.04,8.78-.4,12.36-3.21,7.16-4.08,7.05-16.89-1.28-19.56-9.61-3.12-19.06,4.69-21.69,13.62-2.13,7.26-2.5,15.92,1.91,22.43.21.3.45.59.72.83,5.05,4.47,13.61,4.31,18.74-.04,1.46-1.24,2.15-3.25,1.44-5.03Zm-8.08-25.46c.95-.65,1.94-.62,2.92-.35,2.24.6,3.85,2.7,3.54,5-.1.71-.36,1.37-.89,1.91-3.28,3.88-8.95,2.69-13.43,3.05,1.13-4.12,3.62-8.17,7.86-9.61Z"/>
    </g>
  </g>
</svg>